<svg xmlns="http://www.w3.org/2000/svg" viewBox="2303.33 1518.34 488.1 505.7">
  <path d="M2456.78,1669.12c-25.66,17.3-55.93,24.06-82.72,32.38-19.23-1.8-31.22-10.41-37.28-25.34-8.45-20.81-16.23-42-22.8-63.45-6.17-20.14,2.75-38.34,22.55-46.57,20.12-8.37,40.65-15.92,61.44-22.39a50.1,50.1,0,0,1,14.92-2.46c15.49,0,27.38,9,34.51,26.31,8,19.51,14.69,39.6,21.67,59.53C2475,1643.93,2470.9,1659.61,2456.78,1669.12Z

M2566.48,1997.83a595,595,0,0,1-65.19,24,48.41,48.41,0,0,1-13.91,2.21c-15.22,0-26.7-9-33.63-26-8-19.55-14.91-39.55-21.64-59.58-5.82-17.31-2.4-34.09,12.91-43.74,25.54-16.1,55.24-22.38,80.84-30.06,19,1,31.55,7.49,37.49,22.18,8.68,21.47,16.73,43.26,23.76,65.33C2593.33,1971.72,2585.53,1989.57,2566.48,1997.83Z

M2791.39,1701.73c-1.73,20.53-9.68,32.88-24.79,39-21.43,8.71-43.11,17-65.21,23.8a38.81,38.81,0,0,1-11.43,1.78c-14.89,0-27.58-9.42-34.33-25.94-8.25-20.14-15.59-40.74-22.07-61.52-6.3-20.24,2-38.55,21.81-46.93,20.67-8.75,42-16.08,63.32-23.11a46,46,0,0,1,14.3-2.43c9.72,0,18.71,3.69,24.8,12.31C2776.11,1644.65,2782,1676,2791.39,1701.73Z

M2419.87,1879.1a58.73,58.73,0,0,0-16.21,27.36,66.64,66.64,0,0,0-1.3,27.69c-2.06,1-5.15.11-9.62-3.21-73.57-54.59-105.2-159.75-81.83-233.29.33-1,1.3-1.85,3.19-4.06a64.68,64.68,0,0,0,20.52,23.18,73.48,73.48,0,0,0,29.67,11.62c1.88,3.45,1.76,7.92,1.56,12.56-2.1,48.21,14.14,89.75,46.84,124.79C2417,1870.39,2419.65,1874.59,2419.87,1879.1Z

M2693.79,1587.69c-16.2,5.51-32.92,11.56-49.31,18.5a76.25,76.25,0,0,0-8.9,4.47,74.6,74.6,0,0,1-10.69-4.45c-40-22.47-82-33-127.5-21.31-5.82,1.5-10.22,1.31-13.61-.37-3.3-9.18-6.77-18.42-10.54-27.57a81.94,81.94,0,0,0-10.58-18.67c-1.77-9.23,4.43-10.78,24.34-14.82,73.51-14.92,138.92,3,196.94,49.58C2692.22,1579.68,2695.55,1584,2693.79,1587.69Z

M2763,1784.47c-3.67,27.43-13.21,54.13-27.67,79.18-24.2,41.89-58.18,73.17-101.45,94.67-7.36,3.66-13.1,4.64-16.91,1.34a72.86,72.86,0,0,0-3.19-16c-3.23-10.12-6.71-20.35-10.5-30.85,1.73-7.4,9.22-12.33,25-22.76,30.46-20.18,51.91-47.65,65.23-81.6,2-5.15,9.31-11.76,18.43-17.93,17.07-5.32,33.75-11.47,48.36-17.18C2763.7,1775.44,2762.71,1779.71,2763,1784.47Z" fill="#2D59F8"/>
</svg>